<svg width="1800" height="1800" viewBox="0 0 1800 1800" fill="none" xmlns="http://www.w3.org/2000/svg">
<path d="M1782.68 935.046C1729.61 915.642 1673.79 905.809 1616.8 905.809C1436.05 905.809 1271.45 1006.54 1188.49 1165.09C1107.92 1104.95 1008.04 1069.31 900 1069.31C854.984 1069.31 810.736 1075.47 767.986 1087.59V800.519C767.986 754.225 797.346 712.875 841.058 697.632C905.933 675.014 949.521 613.655 949.521 544.963V394.409C949.521 355.888 923.154 323.424 887.503 314.099V181.151C887.503 110.124 829.729 52.3361 758.688 52.3361H754.898C722.722 52.3361 693.279 64.2288 670.688 83.812C652.382 34.9091 605.196 0 550.003 0H546.199C504.451 0 467.303 19.9677 443.752 50.853C420.2 19.9677 383.052 0 341.304 0H337.514C282.307 0 235.121 34.9091 216.829 83.7982C194.225 64.2288 164.795 52.3361 132.619 52.3361H128.815C57.7881 52.3361 0 110.124 0 181.151V393.846C0 432.985 17.3172 468.127 44.6457 492.105V502.57C44.6457 627.855 97.0779 717.352 141.064 770.389C172.142 807.852 203.288 832.75 221.745 845.865L79.0329 1440.97C58.1039 1528.21 77.9755 1618.67 133.525 1689.13C189.088 1759.58 272.42 1800 362.151 1800H1773.63C1788.19 1800 1800 1788.19 1800 1773.63V959.807C1800 948.738 1793.08 938.837 1782.68 935.046ZM754.898 105.07H758.688C800.642 105.07 834.769 139.211 834.769 181.151V311.394H678.818V181.151C678.818 139.211 712.944 105.07 754.898 105.07ZM546.199 52.7344H550.003C591.957 52.7344 626.083 86.8607 626.083 128.815V311.394H580.078C550.539 311.394 523.938 326.596 508.928 352.043C500.002 367.177 496.266 384.137 497.694 400.836C480.858 386.485 470.119 365.158 470.119 341.51V128.815C470.119 86.8607 504.245 52.7344 546.199 52.7344ZM52.7344 181.151C52.7344 139.211 86.8607 105.07 128.815 105.07H132.619C174.559 105.07 208.699 139.211 208.699 181.151L209.198 311.394C209.198 311.394 208.672 360.654 235.052 288.583C249.609 288.583 261.42 329.507 261.42 314.951L261.433 128.815C261.433 86.8607 295.56 52.7344 337.514 52.7344H341.304C383.258 52.7344 417.384 86.8607 417.384 128.815V341.51C417.384 384.508 382.407 419.485 339.409 419.485C296.411 419.485 261.42 384.508 261.42 341.51V314.951C261.42 300.394 249.623 288.583 235.052 288.583C235.052 288.583 208.685 300.394 208.685 314.951V393.846C208.685 436.844 173.708 471.835 130.71 471.835C87.7121 471.835 52.7344 436.858 52.7344 393.846V181.151ZM97.8058 520.367C108.325 523.1 119.353 524.57 130.71 524.57C186.699 524.57 234.558 489.18 253.152 439.604C276.183 459.888 306.367 472.22 339.409 472.22C382.05 472.22 419.98 451.689 443.848 420.007C465.106 448.105 497.365 467.482 534.073 471.451C543.109 481.819 553.052 491.267 563.777 499.658C499.315 517.95 449.629 571.935 438.574 641.245C436.281 655.623 446.086 669.136 460.464 671.429C474.829 673.695 488.37 663.918 490.649 649.539C500.249 589.362 551.445 545.677 612.392 545.677H758.62C773.177 545.677 784.987 533.867 784.987 519.31C784.987 504.739 773.177 492.943 758.62 492.943H697.179C637.633 492.943 582.742 460.574 553.931 408.472C546.474 394.986 551.733 383.258 554.343 378.836C556.952 374.414 564.67 364.128 580.078 364.128H866.519C883.205 364.128 896.786 377.71 896.786 394.409V544.963C896.786 591.257 867.412 632.593 823.7 647.836C758.826 670.454 715.237 731.813 715.237 800.519V807.687H259.305C231.207 789.093 105.826 696.478 97.8058 520.367ZM1747.27 1747.27H679.999C733.626 1703.83 767.986 1637.51 767.986 1563.3V1480.08C767.986 1465.52 756.175 1453.71 741.618 1453.71C727.048 1453.71 715.251 1465.52 715.251 1480.08V1563.3C715.251 1664.74 632.716 1747.27 531.285 1747.27H362.151C288.666 1747.27 220.441 1714.17 174.944 1656.48C129.446 1598.79 113.173 1524.71 130.312 1453.26L272.488 860.422H715.251V1480.08C715.251 1494.64 727.048 1453.71 741.618 1453.71C756.175 1453.71 767.986 1480.08 767.986 1480.08V1142.66C810.475 1128.98 854.805 1122.05 900 1122.05C1137.41 1122.05 1330.57 1315.2 1330.57 1552.62C1330.57 1567.17 1342.38 1578.98 1356.94 1578.98C1371.49 1578.98 1383.3 1567.17 1383.3 1552.62C1383.3 1413.58 1324.28 1288.11 1229.99 1199.84C1302.06 1052.67 1451.88 958.543 1616.8 958.543C1661.43 958.543 1705.24 965.3 1747.27 978.662V1747.27Z" fill="#23D997"/>
</svg>
