<svg width="1800" height="1800" viewBox="0 0 1800 1800" fill="none" xmlns="http://www.w3.org/2000/svg">
<path d="M425.755 252.821H471.479C479.338 252.821 485.709 246.555 485.709 238.827V103.927C485.709 96.1987 479.338 89.9332 471.479 89.9332H348.534V58.9604C348.534 26.4491 321.638 0 288.58 0C255.521 0 228.625 26.4501 228.625 58.9604V89.9332H105.68C97.8211 89.9332 91.4499 96.1987 91.4499 103.927V224.833H59.9547C26.8961 224.833 0 251.283 0 283.793C0 316.304 26.8961 342.754 59.9547 342.754H91.4499V463.66C91.4499 471.388 97.8211 477.654 105.68 477.654H242.855C250.713 477.654 257.084 471.388 257.084 463.66V418.693C257.084 401.614 271.214 387.72 288.58 387.72C305.946 387.72 320.075 401.615 320.075 418.693V463.66C320.075 471.388 326.446 477.654 334.305 477.654H471.479C479.338 477.654 485.709 471.388 485.709 463.66V328.76C485.709 321.032 479.338 314.766 471.479 314.766H425.755C408.388 314.766 394.259 300.871 394.259 283.793C394.259 266.715 408.388 252.821 425.755 252.821ZM425.755 342.754H457.25V449.666H348.534V418.693C348.534 386.182 321.638 359.733 288.58 359.733C255.521 359.733 228.625 386.182 228.625 418.693V449.666H119.909V328.76C119.909 321.032 113.538 314.766 105.68 314.766H59.9547C42.5878 314.766 28.4595 300.871 28.4595 283.793C28.4595 266.715 42.5887 252.821 59.9547 252.821H105.68C113.538 252.821 119.909 246.555 119.909 238.827V117.921H242.855C250.713 117.921 257.084 111.655 257.084 103.927V58.9604C257.084 41.8815 271.214 27.9875 288.58 27.9875C305.946 27.9875 320.075 41.8824 320.075 58.9604V103.927C320.075 111.655 326.446 117.921 334.305 117.921H457.25V224.833H425.755C392.695 224.833 365.8 251.283 365.8 283.793C365.8 316.304 392.695 342.754 425.755 342.754Z" fill="#23D997"/>
<path d="M1468.51 149.452V104.487C1468.51 96.7583 1462.14 90.4929 1454.28 90.4929H1317.11C1309.25 90.4929 1302.88 96.7583 1302.88 104.487V225.393H1271.38C1238.32 225.393 1211.43 251.843 1211.43 284.353C1211.43 316.863 1238.32 343.313 1271.38 343.313H1302.88V464.22C1302.88 471.948 1309.25 478.213 1317.11 478.213H1440.05V509.186C1440.05 541.696 1466.95 568.146 1500.01 568.146C1533.06 568.146 1559.96 541.696 1559.96 509.186V478.213H1682.91C1690.76 478.213 1697.14 471.948 1697.14 464.22V329.32C1697.14 321.591 1690.76 315.326 1682.91 315.326H1637.18C1619.81 315.326 1605.69 301.431 1605.69 284.353C1605.69 267.275 1619.82 253.38 1637.18 253.38H1682.91C1690.76 253.38 1697.14 247.115 1697.14 239.386V104.487C1697.14 96.7583 1690.76 90.4929 1682.91 90.4929H1545.73C1537.87 90.4929 1531.5 96.7583 1531.5 104.487V149.452C1531.5 166.532 1517.37 180.426 1500.01 180.426C1482.64 180.426 1468.51 166.532 1468.51 149.452ZM1559.96 149.452V118.48H1668.68V225.393H1637.18C1604.12 225.393 1577.23 251.843 1577.23 284.353C1577.23 316.863 1604.12 343.313 1637.18 343.313H1668.68V450.226H1545.73C1537.87 450.226 1531.5 456.491 1531.5 464.22V509.186C1531.5 526.265 1517.37 540.159 1500.01 540.159C1482.64 540.159 1468.51 526.264 1468.51 509.186V464.22C1468.51 456.491 1462.14 450.226 1454.28 450.226H1331.34V329.32C1331.34 321.591 1324.97 315.326 1317.11 315.326H1271.38C1254.01 315.326 1239.89 301.431 1239.89 284.353C1239.89 267.275 1254.02 253.38 1271.38 253.38H1317.11C1324.97 253.38 1331.34 247.115 1331.34 239.386V118.48H1440.05V149.452C1440.05 181.964 1466.95 208.414 1500.01 208.414C1533.06 208.414 1559.96 181.964 1559.96 149.452Z" fill="#23D997"/>
<path d="M320.644 1639.88L320.644 1684.85C320.644 1692.58 327.015 1698.84 334.874 1698.84H472.049C479.907 1698.84 486.279 1692.58 486.279 1684.85V1563.94H517.774C550.833 1563.94 577.729 1537.49 577.729 1504.98C577.729 1472.47 550.832 1446.02 517.774 1446.02H486.279V1325.12C486.279 1317.39 479.907 1311.12 472.049 1311.12H349.104V1280.15C349.104 1247.64 322.207 1221.19 289.149 1221.19C256.09 1221.19 229.194 1247.64 229.194 1280.15V1311.12H106.249C98.3904 1311.12 92.0193 1317.39 92.0193 1325.12V1460.02C92.0193 1467.74 98.3904 1474.01 106.249 1474.01H151.974C169.341 1474.01 183.469 1487.9 183.469 1504.98C183.469 1522.06 169.34 1535.96 151.974 1535.96H106.249C98.3904 1535.96 92.0193 1542.22 92.0193 1549.95L92.0193 1684.85C92.0193 1692.58 98.3904 1698.84 106.249 1698.84H243.424C251.283 1698.84 257.654 1692.58 257.654 1684.85L257.654 1639.88C257.654 1622.8 271.783 1608.91 289.149 1608.91C306.515 1608.91 320.644 1622.8 320.644 1639.88ZM229.194 1639.88L229.194 1670.86H120.479L120.479 1563.94H151.974C185.034 1563.94 211.929 1537.49 211.929 1504.98C211.929 1472.47 185.034 1446.02 151.974 1446.02H120.479V1339.11H243.424C251.283 1339.11 257.654 1332.84 257.654 1325.12V1280.15C257.654 1263.07 271.783 1249.18 289.149 1249.18C306.515 1249.18 320.644 1263.07 320.644 1280.15V1325.12C320.644 1332.84 327.015 1339.11 334.874 1339.11H457.819V1460.02C457.819 1467.74 464.19 1474.01 472.049 1474.01H517.774C535.141 1474.01 549.269 1487.9 549.269 1504.98C549.269 1522.06 535.14 1535.96 517.774 1535.96H472.049C464.19 1535.96 457.819 1542.22 457.819 1549.95V1670.86H349.104V1639.88C349.104 1607.37 322.207 1580.92 289.149 1580.92C256.09 1580.92 229.194 1607.37 229.194 1639.88Z" fill="#23D997"/>
<path d="M1361.5 1506.66H1315.78C1307.92 1506.66 1301.55 1512.93 1301.55 1520.66V1655.56C1301.55 1663.28 1307.92 1669.55 1315.78 1669.55L1438.72 1669.55V1700.52C1438.72 1733.03 1465.62 1759.48 1498.68 1759.48C1531.74 1759.48 1558.63 1733.03 1558.63 1700.52V1669.55H1681.58C1689.44 1669.55 1695.81 1663.28 1695.81 1655.56V1534.65H1727.3C1760.36 1534.65 1787.26 1508.2 1787.26 1475.69C1787.26 1443.18 1760.36 1416.73 1727.3 1416.73H1695.81V1295.82C1695.81 1288.09 1689.44 1281.83 1681.58 1281.83H1544.4C1536.54 1281.83 1530.17 1288.09 1530.17 1295.82V1340.79C1530.17 1357.87 1516.04 1371.76 1498.68 1371.76C1481.31 1371.76 1467.18 1357.87 1467.18 1340.79V1295.82C1467.18 1288.09 1460.81 1281.83 1452.95 1281.83H1315.78C1307.92 1281.83 1301.55 1288.09 1301.55 1295.82V1430.72C1301.55 1438.45 1307.92 1444.72 1315.78 1444.72H1361.5C1378.87 1444.72 1393 1458.61 1393 1475.69C1393 1492.77 1378.87 1506.66 1361.5 1506.66ZM1361.5 1416.73H1330.01V1309.82H1438.72V1340.79C1438.72 1373.3 1465.62 1399.75 1498.68 1399.75C1531.74 1399.75 1558.63 1373.3 1558.63 1340.79V1309.82H1667.35V1430.72C1667.35 1438.45 1673.72 1444.72 1681.58 1444.72H1727.3C1744.67 1444.72 1758.8 1458.61 1758.8 1475.69C1758.8 1492.77 1744.67 1506.66 1727.3 1506.66H1681.58C1673.72 1506.66 1667.35 1512.93 1667.35 1520.66V1641.56H1544.4C1536.54 1641.56 1530.17 1647.83 1530.17 1655.56V1700.52C1530.17 1717.6 1516.04 1731.49 1498.68 1731.49C1481.31 1731.49 1467.18 1717.6 1467.18 1700.52V1655.56C1467.18 1647.83 1460.81 1641.56 1452.95 1641.56H1330.01V1534.65H1361.5C1394.56 1534.65 1421.46 1508.2 1421.46 1475.69C1421.46 1443.18 1394.56 1416.73 1361.5 1416.73Z" fill="#23D997"/>
<g clip-path="url(#clip0)">
<path d="M1213.76 801.618H1153.92C1148.9 785.508 1142.33 769.947 1134.36 755.126L1176.63 713.553C1185.68 704.656 1190.66 692.805 1190.66 680.184C1190.66 667.579 1185.68 655.727 1176.63 646.831L1131.4 602.35C1113.32 584.574 1081.68 584.527 1063.57 602.35L1021.29 643.924C1006.24 636.08 990.399 629.636 974.017 624.685V565.854C974.017 539.857 952.504 518.701 926.069 518.701H862.138C835.702 518.701 814.19 539.857 814.19 565.854V624.701C797.807 629.652 781.984 636.096 766.913 643.939L724.623 602.366C705.923 583.976 675.492 583.976 656.792 602.366L611.545 646.847C592.861 665.237 592.861 695.163 611.545 713.553L653.819 755.141C645.844 769.947 639.291 785.524 634.256 801.634H574.449C548.014 801.634 526.501 822.79 526.501 848.787V911.658C526.501 937.639 548.014 958.795 574.449 958.795H634.288C639.323 974.905 645.876 990.466 653.851 1005.29L611.577 1046.88C592.877 1065.27 592.877 1095.19 611.577 1113.58L656.808 1158.08C675.508 1176.45 705.939 1176.45 724.639 1158.08L766.929 1116.51C781.984 1124.35 797.823 1130.79 814.206 1135.74V1194.56C814.206 1220.56 835.718 1241.71 862.154 1241.71H926.085C952.52 1241.71 974.033 1220.56 974.033 1194.56V1135.71C990.415 1130.76 1006.25 1124.32 1021.31 1116.47L1063.58 1158.06C1081.71 1175.87 1113.35 1175.84 1131.41 1158.06L1176.65 1113.58C1185.69 1104.69 1190.68 1092.83 1190.68 1080.23C1190.68 1067.61 1185.69 1055.77 1176.65 1046.88L1134.37 1005.29C1142.35 990.481 1148.9 974.905 1153.93 958.795H1213.76C1240.19 958.795 1261.71 937.639 1261.71 911.642V848.771C1261.71 822.774 1240.19 801.618 1213.76 801.618ZM1229.74 911.642C1229.74 920.302 1222.58 927.359 1213.76 927.359H1141.84C1134.55 927.359 1128.19 932.216 1126.36 939.148C1120.71 960.602 1112.09 981.082 1100.73 1000.01C1097.04 1006.18 1098.04 1014.04 1103.19 1019.1L1154.01 1069.1C1157.02 1072.06 1158.68 1076 1158.68 1080.23C1158.68 1084.46 1157.02 1088.4 1154.01 1091.36L1108.78 1135.84C1102.77 1141.75 1092.18 1141.75 1086.15 1135.84L1035.33 1085.86C1030.18 1080.78 1022.19 1079.8 1015.89 1083.44C996.68 1094.6 975.855 1103.08 954.022 1108.63C946.99 1110.41 942.051 1116.66 942.051 1123.83V1194.56C942.051 1203.22 934.891 1210.28 926.069 1210.28H862.138C853.331 1210.28 846.155 1203.22 846.155 1194.56V1123.83C846.155 1116.66 841.216 1110.41 834.168 1108.62C812.352 1103.07 791.526 1094.6 772.283 1083.42C769.758 1081.94 766.961 1081.24 764.164 1081.24C760.024 1081.24 755.933 1082.81 752.848 1085.84L702.023 1135.82C695.774 1141.95 685.641 1141.95 679.392 1135.82L634.16 1091.34C627.911 1085.2 627.911 1075.22 634.16 1069.09L684.985 1019.1C690.148 1014.03 691.155 1006.17 687.447 1000.01C676.099 981.082 667.468 960.618 661.827 939.148C660.02 932.216 653.659 927.359 646.371 927.359H574.449C565.643 927.359 558.466 920.302 558.466 911.642V848.771C558.466 840.111 565.643 833.054 574.449 833.054H646.371C653.659 833.054 660.02 828.197 661.843 821.266C667.484 799.811 676.099 779.331 687.463 760.407C691.171 754.23 690.164 746.371 685.001 741.31L634.176 691.328C627.943 685.198 627.943 675.217 634.176 669.072L679.408 624.591C685.657 618.445 695.79 618.461 702.039 624.591L752.864 674.573C758.026 679.65 766.002 680.656 772.283 676.993C791.526 665.834 812.336 657.346 834.168 651.798C841.216 650.006 846.155 643.751 846.155 636.583V565.854C846.155 557.194 853.331 550.136 862.138 550.136H926.069C934.891 550.136 942.051 557.194 942.051 565.854V636.583C942.051 643.751 946.99 650.006 954.038 651.798C975.871 657.346 996.696 665.834 1015.91 676.993C1022.2 680.64 1030.2 679.665 1035.34 674.573L1086.17 624.591C1092.19 618.65 1102.79 618.665 1108.8 624.591L1154.03 669.072C1157.03 672.027 1158.7 675.987 1158.7 680.2C1158.7 684.412 1157.03 688.373 1154.03 691.328L1103.2 741.31C1098.06 746.387 1097.04 754.246 1100.74 760.407C1112.11 779.331 1120.72 799.795 1126.38 821.266C1128.19 828.197 1134.55 833.054 1141.84 833.054H1213.76C1222.58 833.054 1229.74 840.111 1229.74 848.771V911.642V911.642Z" fill="#23D997"/>
<path d="M998.308 743.394C967.928 720.744 931.675 708.771 893.472 708.771C797.696 708.771 719.776 785.398 719.776 879.586C719.776 973.773 797.696 1050.4 893.472 1050.4C989.247 1050.4 1067.17 973.773 1067.17 879.586C1067.17 837.357 1051.36 796.815 1022.67 765.429C1019.93 762.426 1015.22 762.179 1012.17 764.88C1009.12 767.581 1008.87 772.204 1011.61 775.207C1037.85 803.905 1052.29 840.974 1052.29 879.586C1052.29 965.709 981.047 1035.77 893.472 1035.77C805.896 1035.77 734.649 965.709 734.649 879.586C734.649 793.463 805.896 723.397 893.472 723.397C928.404 723.397 961.549 734.342 989.323 755.048C992.596 757.488 997.26 756.856 999.74 753.639C1002.22 750.42 1001.58 745.834 998.308 743.394V743.394Z" fill="#23D997"/>
<path d="M893.472 739.828C815.11 739.828 751.357 802.523 751.357 879.585C751.357 956.648 815.11 1019.34 893.472 1019.34C971.834 1019.34 1035.59 956.648 1035.59 879.585C1035.59 802.523 971.834 739.828 893.472 739.828V739.828ZM893.472 1004.69C823.327 1004.69 766.26 948.567 766.26 879.585C766.26 810.604 823.327 754.484 893.472 754.484C963.616 754.484 1020.68 810.604 1020.68 879.585C1020.68 948.567 963.616 1004.69 893.472 1004.69Z" fill="#23D997"/>
<path d="M893.472 806.912C870.769 806.912 849.646 816.972 835.522 834.514C832.973 837.68 833.516 842.279 836.735 844.787C839.954 847.294 844.631 846.759 847.181 843.594C858.468 829.577 875.34 821.537 893.472 821.537C926.02 821.537 952.499 847.578 952.499 879.586C952.499 911.594 926.02 937.635 893.472 937.635C860.923 937.635 834.444 911.594 834.444 879.586C834.444 876.006 834.795 872.364 835.485 868.76C836.246 864.791 833.591 860.967 829.556 860.219C825.513 859.471 821.631 862.082 820.871 866.05C820.009 870.545 819.572 875.098 819.572 879.586C819.572 919.658 852.723 952.26 893.472 952.26C934.22 952.26 967.371 919.658 967.371 879.586C967.371 839.513 934.22 806.912 893.472 806.912V806.912Z" fill="#23D997"/>
</g>
<path d="M274.85 931.591V803.32L313.721 803.324L313.721 931.591H274.85ZM313.721 712.949L313.723 609.652L274.852 609.648L274.85 712.945L313.721 712.949ZM274.85 1021.96L274.852 1150.23L313.721 1150.24L313.719 1021.96L274.85 1021.96Z" fill="#23D997"/>
<path d="M1486.28 931.591V803.32L1525.15 803.324L1525.15 931.591H1486.28ZM1525.15 712.949L1525.15 609.652L1486.28 609.648L1486.28 712.945L1525.15 712.949ZM1486.28 1021.96L1486.28 1150.23L1525.15 1150.24L1525.15 1021.96L1486.28 1021.96Z" fill="#23D997"/>
<path d="M970.07 1529.71H839.636L839.64 1491.48L970.07 1491.48V1529.71ZM747.74 1491.48L642.701 1491.48L642.698 1529.71L747.737 1529.71L747.74 1491.48ZM1061.97 1529.71L1192.4 1529.71L1192.4 1491.48L1061.97 1491.48L1061.97 1529.71Z" fill="#23D997"/>
<path d="M924.534 308.519H794.101L794.104 270.292L924.534 270.292V308.519ZM702.205 270.292L597.166 270.291L597.162 308.517L702.201 308.519L702.205 270.292ZM1016.43 308.519L1146.87 308.517L1146.87 270.292L1016.43 270.294L1016.43 308.519Z" fill="#23D997"/>
<defs>
<clipPath id="clip0">
<rect width="735.204" height="723.011" fill="white" transform="translate(526.501 518.701)"/>
</clipPath>
</defs>
</svg>
