<svg width="1800" height="1800" viewBox="0 0 1800 1800" fill="none" xmlns="http://www.w3.org/2000/svg">
<path d="M1393.55 1364.52C1441.57 1364.52 1480.64 1325.44 1480.64 1277.42C1480.64 1229.4 1441.57 1190.32 1393.55 1190.32C1345.53 1190.32 1306.45 1229.4 1306.45 1277.42C1306.45 1325.44 1345.53 1364.52 1393.55 1364.52ZM1393.55 1248.39C1409.54 1248.39 1422.58 1261.39 1422.58 1277.42C1422.58 1293.44 1409.54 1306.45 1393.55 1306.45C1377.55 1306.45 1364.52 1293.44 1364.52 1277.42C1364.52 1261.39 1377.55 1248.39 1393.55 1248.39Z" fill="#23D997"/>
<path d="M1688.52 1154.85C1679.72 1133.77 1684.39 1109.82 1700.39 1093.79L1742.63 1051.52L1619.42 928.306L1577.12 970.577C1561.12 986.603 1537.14 991.248 1514.96 981.958C1494.12 973.365 1480.65 953.216 1480.65 930.629V870.968H1421.1C1418.46 824.139 1409.78 778.877 1395.38 735.997L1731.34 400.036C1775.61 355.761 1800 296.913 1800 234.319C1800 105.126 1694.87 0 1565.68 0C1503.09 0 1444.24 24.3871 1399.99 68.6323L1064.38 404.274C1020.98 389.7 974.961 381.223 927.436 378.697C887.371 308.7 812.09 261.29 725.806 261.29C703.713 261.29 682.403 264.6 662.11 270.377C612 176.168 514.655 116.129 406.452 116.129C246.368 116.129 116.129 246.368 116.129 406.452C116.129 428.69 118.858 450.581 123.823 472.006C52.2581 493.665 0 560.177 0 638.71C0 734.777 78.1258 812.903 174.194 812.903H384.794C379.974 841.616 377.419 870.765 377.419 900C377.419 963.9 389.235 1015.9 408.31 1060.32L149.313 1319.34L5.19677 1694.03C1.74194 1702.97 0 1712.38 0 1721.99C0 1765.02 35.0129 1800 78.0097 1800C87.6194 1800 97.0258 1798.23 105.997 1794.8L480.687 1650.69L670.065 1461.28C668.642 1467.52 667.742 1473.97 667.742 1480.65C667.742 1503.03 676.481 1523.26 690.387 1538.71C676.452 1554.15 667.742 1574.39 667.742 1596.77C667.742 1637.13 695.468 1670.86 732.774 1680.68C757.51 1751.52 823.761 1800 900 1800C976.239 1800 1042.49 1751.52 1067.23 1680.68C1104.53 1670.86 1132.26 1637.13 1132.26 1596.77C1132.26 1594.6 1131.76 1592.56 1131.62 1590.45L1167.68 1626.5L1209.98 1584.23C1225.97 1568.21 1249.87 1563.53 1272.11 1572.79C1292.95 1581.47 1306.45 1601.62 1306.45 1624.21V1683.87H1480.65V1624.21C1480.65 1601.62 1494.15 1581.45 1516.12 1572.36C1537.2 1563.59 1561.15 1568.21 1577.15 1584.23L1619.42 1626.5L1742.63 1503.29L1700.39 1461.02C1684.39 1444.99 1679.72 1421.04 1688.98 1398.86C1697.6 1378.02 1717.75 1364.52 1740.34 1364.52H1800V1190.32H1740.34C1717.75 1190.32 1697.6 1176.82 1688.52 1154.85V1154.85ZM1253.5 1240.43C1285.17 1209.51 1316.9 1177.93 1344.28 1141.4C1360.07 1135.65 1376.51 1132.26 1393.55 1132.26C1473.59 1132.26 1538.71 1197.38 1538.71 1277.42C1538.71 1357.46 1473.59 1422.58 1393.55 1422.58C1313.51 1422.58 1248.39 1357.46 1248.39 1277.42C1248.39 1264.85 1250.33 1252.48 1253.5 1240.43V1240.43ZM1288.36 552.716L1422.58 418.471L1526.69 522.581L1371.63 677.642C1349.88 632.003 1321.78 590.023 1288.36 552.716V552.716ZM1318.47 232.258L1364.52 186.213L1613.79 435.484L1567.74 481.529L1318.47 232.258ZM1565.68 58.0645C1662.85 58.0645 1741.94 137.148 1741.94 234.319C1741.94 281.381 1723.62 325.655 1690.32 358.955L1654.84 394.432L1405.57 145.161L1441.05 109.684C1474.35 76.4129 1518.59 58.0645 1565.68 58.0645V58.0645ZM1277.42 273.31L1381.53 377.419L1247.37 511.577C1210.09 478.132 1168.14 450 1122.5 428.226L1277.42 273.31ZM1364.52 900C1364.52 1051.05 1288.45 1125.26 1207.92 1203.79C1152.46 1257.88 1095.5 1313.8 1062.35 1395.29C1056.8 1394.16 1051.05 1393.55 1045.16 1393.55H929.032V1248.39C929.032 1200.37 889.955 1161.29 841.936 1161.29H783.871C767.874 1161.29 754.839 1148.28 754.839 1132.26C754.839 1116.23 767.874 1103.23 783.871 1103.23H1074.19C1122.21 1103.23 1161.29 1064.15 1161.29 1016.13C1161.29 968.11 1122.21 929.032 1074.19 929.032H841.936C825.939 929.032 812.903 916.026 812.903 900V812.903H958.065C1038.11 812.903 1103.23 747.784 1103.23 667.742C1103.23 587.7 1038.11 522.581 958.065 522.581C957.252 522.581 956.497 522.813 955.684 522.813C956.932 513.116 958.065 503.419 958.065 493.548C958.065 474.561 955.51 456.184 951.213 438.503C1182.66 464.284 1364.52 662.923 1364.52 900V900ZM725.806 1480.65C725.806 1464.62 738.842 1451.61 754.839 1451.61H1045.16C1061.16 1451.61 1074.19 1464.62 1074.19 1480.65C1074.19 1496.67 1061.16 1509.68 1045.16 1509.68H754.839C738.842 1509.68 725.806 1496.67 725.806 1480.65ZM360.406 1480.65L573.823 1267.23C609.532 1302.65 642.687 1338.47 667.132 1382.11L464.516 1584.75L360.406 1480.65ZM58.0645 638.71C58.0645 574.665 110.148 522.581 174.194 522.581C238.239 522.581 290.323 574.665 290.323 638.71H348.387C348.387 545.168 274.21 468.813 181.626 464.894C176.69 445.906 174.194 426.31 174.194 406.452C174.194 278.39 278.39 174.194 406.452 174.194C491.371 174.194 568.016 220.355 608.777 293.255C546.881 329.574 503.158 393.532 495 468.174C444.31 480.658 406.452 526.152 406.452 580.645H464.516C464.516 548.623 490.558 522.581 522.581 522.581C554.603 522.581 580.645 548.623 580.645 580.645H638.71C638.71 527.371 602.477 482.865 553.5 469.219C565.403 384.677 638.013 319.355 725.806 319.355C821.874 319.355 900 397.481 900 493.548C900 508.819 897.503 523.771 893.613 538.345C846 562.181 812.903 610.955 812.903 667.742H870.968C870.968 619.723 910.045 580.645 958.065 580.645C1006.08 580.645 1045.16 619.723 1045.16 667.742C1045.16 715.761 1006.08 754.839 958.065 754.839H174.194C110.148 754.839 58.0645 702.755 58.0645 638.71V638.71ZM754.839 812.903V900C754.839 948.019 793.916 987.097 841.936 987.097H1074.19C1090.19 987.097 1103.23 1000.1 1103.23 1016.13C1103.23 1032.15 1090.19 1045.16 1074.19 1045.16H783.871C735.852 1045.16 696.774 1084.24 696.774 1132.26C696.774 1180.28 735.852 1219.35 783.871 1219.35H841.936C857.932 1219.35 870.968 1232.36 870.968 1248.39V1393.55H754.839C748.945 1393.55 743.197 1394.16 737.652 1395.29C704.497 1313.8 647.535 1257.88 592.084 1203.79C511.548 1125.26 435.484 1051.05 435.484 900C435.484 870.648 438.997 841.558 444.426 812.903H754.839ZM532.365 1226.58L319.355 1439.59L215.245 1335.48L436.761 1113.97C464.023 1156.76 497.816 1192.47 532.365 1226.58V1226.58ZM185.255 1387.6L412.403 1614.75L220.094 1688.72L111.281 1579.91L185.255 1387.6ZM85.1806 1740.6C72.6097 1745.48 58.0645 1735.46 58.0645 1721.99C58.0645 1719.52 58.529 1717.11 59.371 1714.85L88.4613 1639.19L160.781 1711.51L85.1806 1740.6ZM900 1741.94C857.119 1741.94 818.884 1719.12 797.69 1683.87H1002.31C981.116 1719.12 942.881 1741.94 900 1741.94ZM1045.16 1625.81H754.839C738.842 1625.81 725.806 1612.8 725.806 1596.77C725.806 1580.75 738.842 1567.74 754.839 1567.74H1045.16C1061.16 1567.74 1074.19 1580.75 1074.19 1596.77C1074.19 1612.8 1061.16 1625.81 1045.16 1625.81ZM1741.94 1306.45H1740.34C1694.15 1306.45 1652.92 1334.03 1634.92 1377.64C1617.04 1420.52 1626.62 1469.35 1659.31 1502.07L1660.53 1503.29L1619.42 1544.4L1618.2 1543.18C1585.45 1510.43 1536.56 1500.82 1492.81 1519.17C1450.16 1536.82 1422.58 1578.02 1422.58 1624.21V1625.81H1364.52V1624.21C1364.52 1578.02 1336.94 1536.79 1293.33 1518.76C1250.39 1500.85 1201.56 1510.46 1168.87 1543.18L1167.65 1544.4L1128.31 1505.06C1130.63 1497.25 1132.26 1489.18 1132.26 1480.65C1132.26 1460.03 1124.77 1441.34 1112.75 1426.38C1130.81 1377.64 1159.11 1338.65 1192.06 1302.65C1204.55 1402.81 1290.05 1480.65 1393.55 1480.65C1505.61 1480.65 1596.77 1389.45 1596.77 1277.42C1596.77 1165.38 1505.61 1074.19 1393.55 1074.19C1390.7 1074.19 1387.95 1074.48 1385.13 1074.6C1404.78 1033.81 1418.28 986.516 1421.68 929.032H1422.58V930.629C1422.58 976.819 1450.16 1018.07 1493.74 1036.05C1536.59 1053.99 1585.48 1044.41 1618.2 1011.66L1619.42 1010.44L1660.53 1051.55L1659.31 1052.77C1626.62 1085.49 1617.04 1134.35 1635.3 1178.13C1652.92 1220.81 1694.15 1248.39 1740.34 1248.39H1741.94V1306.45Z" fill="#23D997"/>
</svg>
