<svg width="1775" height="1770" viewBox="0 0 1775 1770" fill="none" xmlns="http://www.w3.org/2000/svg">
<path d="M1641.57 928.587C1636.15 900.34 1611.45 879.914 1582.68 879.898H1524.75L1520.49 854.368C1516.24 828.725 1496.04 808.691 1470.36 804.658C1464.66 803.758 1458.9 803.158 1453.23 802.378C1463.06 756.513 1454.89 708.628 1430.43 668.608C1443.36 635.082 1440.94 597.577 1423.83 565.983C1406.72 534.389 1376.62 511.878 1341.48 504.387C1319.02 384.147 1214.41 296.744 1092.09 296.007C1089.09 296.007 1086.42 296.397 1083.57 296.487C1064.03 265.793 1031.8 245.421 995.693 240.93C959.582 236.439 923.351 248.296 896.882 273.267C863.538 251.593 824.631 240.038 784.862 239.997C720.783 240.26 660.392 270.002 621.122 320.637C577.518 307.922 530.498 315.73 493.343 341.854C456.187 367.978 432.931 409.583 430.142 454.917C384.342 474.17 354.541 518.996 354.512 568.677C354.606 577.289 355.611 585.867 357.512 594.267C317.009 655.327 306.425 731.477 328.742 801.267C320.702 802.377 312.482 803.367 304.742 804.507C278.931 808.402 258.548 828.446 254.222 854.187L249.962 879.807H191.882C163.167 879.827 138.492 900.189 133.022 928.377L1.65187 1602.84C-3.47857 1629.25 3.47858 1656.58 20.6163 1677.32C37.754 1698.06 63.2743 1710.05 90.1819 1710H715.802C740.642 1750.98 816.122 1770 887.282 1770C957.692 1770 1032.45 1751.43 1058.01 1710H1684.38C1711.28 1710.05 1736.8 1698.07 1753.93 1677.33C1771.07 1656.59 1778.03 1629.28 1772.91 1602.87L1641.57 928.587ZM445.232 622.978C420.874 608.332 409.249 579.258 416.794 551.856C424.34 524.454 449.21 505.429 477.632 505.317C497.523 505.258 516.244 514.713 528.002 530.757C534.39 539.364 544.884 543.909 555.531 542.68C566.179 541.451 575.362 534.635 579.621 524.8C583.881 514.965 582.57 503.604 576.182 494.997C555.811 467.771 524.94 450.354 491.102 446.997C500.046 404.983 537.096 374.906 580.052 374.787C583.712 374.973 587.359 375.374 590.972 375.987C588.558 382.138 586.456 388.406 584.672 394.767C580.938 410.648 590.579 426.601 606.374 430.681C622.169 434.76 638.329 425.47 642.752 409.767C646.163 396.582 651.404 383.939 658.322 372.207C684.933 327.626 732.942 300.229 784.862 299.997C813.119 300.123 840.729 308.461 864.332 323.997C859.836 336.631 857.454 349.919 857.282 363.327C857.282 379.896 870.713 393.327 887.282 393.327C903.85 393.327 917.282 379.896 917.282 363.327C917.282 328.476 945.535 300.222 980.387 300.222C1015.24 300.222 1043.49 328.476 1043.49 363.327C1043.49 379.896 1056.92 393.327 1073.49 393.327C1090.06 393.327 1103.49 379.896 1103.49 363.327C1103.49 361.017 1102.92 358.827 1102.8 356.517C1188.7 361.817 1260.94 422.878 1280.46 506.697C1266.47 510.772 1253.32 517.326 1241.64 526.047C1233.07 532.478 1228.58 542.995 1229.86 553.636C1231.14 564.277 1238 573.426 1247.86 577.636C1257.71 581.846 1269.07 580.478 1277.64 574.047C1301.62 556.298 1334.73 557.714 1357.1 577.444C1379.47 597.174 1385.02 629.854 1370.4 655.857C1363.87 667.34 1353.95 676.52 1341.99 682.138C1329.45 688.208 1322.74 702.11 1325.79 715.702C1328.84 729.295 1340.84 739.001 1354.77 739.138C1359.17 739.144 1363.52 738.171 1367.49 736.287C1375.44 732.434 1382.96 727.737 1389.9 722.278C1405.41 766.364 1395.68 815.398 1364.52 850.227L1363.8 850.977C1324.72 893.316 1262.37 904.758 1210.8 879.058C1205.75 876.39 1200.9 873.362 1196.28 869.998C1218.38 839.018 1221.43 798.326 1204.2 764.397C1199.38 754.821 1189.81 748.545 1179.11 747.934C1168.4 747.322 1158.18 752.469 1152.3 761.434C1146.42 770.399 1145.77 781.821 1150.59 791.397C1160.46 811.226 1154.3 835.288 1136.13 847.947C1125.46 855.052 1112.28 857.299 1099.86 854.131C1087.43 850.962 1076.94 842.675 1070.97 831.328C1066.18 821.74 1056.63 815.44 1045.93 814.8C1035.23 814.16 1025 819.278 1019.09 828.225C1013.19 837.173 1012.51 848.59 1017.3 858.178C1034.9 893.694 1071.15 916.124 1110.78 916.018C1123.69 915.93 1136.46 913.416 1148.43 908.608C1159.15 917.989 1170.95 926.046 1183.59 932.608C1226.35 954.77 1276.07 959.366 1322.16 945.418C1292.52 985.898 1248.15 1013.1 1198.62 1021.17C1183.21 1023.68 1172.31 1037.58 1173.54 1053.14C1174.77 1068.7 1187.72 1080.72 1203.33 1080.78C1204.93 1080.78 1206.52 1080.66 1208.1 1080.42C1226.37 1077.26 1244.22 1072.04 1261.32 1064.88C1270.56 1081.22 1278.06 1098.48 1283.7 1116.39C1284.73 1119.51 1285.26 1122.79 1285.26 1126.08C1285.25 1139.04 1277.51 1150.75 1265.58 1155.84C1251.78 1161.17 1236.12 1156.96 1226.85 1145.43C1203.62 1118.14 1173.2 1097.93 1139.04 1087.08C1074.21 1065.36 1049.19 1045.95 1038.57 1024.83C1054.14 1022.89 1069.52 1019.67 1084.56 1015.23C1094.81 1012.08 1102.6 1003.7 1104.99 993.249C1107.38 982.8 1104.02 971.867 1096.17 964.569C1088.32 957.271 1077.17 954.716 1066.92 957.868C1050.09 963.032 1032.71 966.223 1015.14 967.377C981.292 970.023 947.285 964.892 915.722 952.378C903.871 947.756 890.394 951.11 882.092 960.748C838.413 1010.92 763.656 1019.45 709.799 980.402C655.943 941.354 640.805 867.651 674.912 810.537C680.437 801.315 680.622 789.845 675.397 780.449C670.173 771.052 660.332 765.157 649.583 764.984C638.833 764.81 628.807 770.385 623.282 779.607C616.124 791.789 610.368 804.742 606.122 818.218C582.498 816.975 563.869 797.652 563.492 773.997V773.247C563.476 765.331 560.298 757.75 554.664 752.189C549.03 746.628 541.408 743.549 533.492 743.638C516.852 743.802 503.458 757.356 503.492 773.997C503.626 827.201 543.748 871.794 596.642 877.527C596.749 887.584 597.662 897.616 599.372 907.527C532.388 922.022 462.913 897.944 419.264 845.109C375.614 792.273 365.079 719.503 391.952 656.457C398.664 663.248 406.156 669.219 414.272 674.248C428.444 682.549 446.657 677.912 455.132 663.843C463.608 649.774 459.195 631.506 445.232 622.857V622.978ZM313.232 863.968C327.062 861.928 341.342 860.127 355.532 858.267C411 946.906 517.086 989.946 618.632 965.008C645.917 1016.79 695.774 1052.91 753.484 1062.69C811.195 1072.47 870.167 1054.8 912.992 1014.9C933.379 1020.98 954.377 1024.78 975.602 1026.24C990.092 1081.2 1031.97 1114.5 1119.96 1143.99C1143.68 1151.42 1164.84 1165.36 1181.04 1184.22C1199.05 1205.63 1225.54 1218.08 1253.52 1218.27C1265.76 1218.26 1277.87 1215.79 1289.13 1211.01C1323.14 1196.47 1345.2 1163.06 1345.2 1126.08C1345.23 1116.43 1343.69 1106.85 1340.64 1097.7C1333.9 1076.5 1325.01 1056.05 1314.12 1036.65C1365.14 999.975 1400.67 945.626 1413.81 884.187C1420.2 876.596 1425.98 868.511 1431.09 860.008C1441.14 861.298 1451.19 862.438 1461.3 864.118L1569.6 1515.54C1357.91 1444.85 1128.98 1444.85 917.282 1515.54V1140C917.282 1123.43 903.85 1110 887.282 1110C870.713 1110 857.282 1123.43 857.282 1140V1515.66C645.611 1444.9 416.685 1444.82 204.962 1515.42L313.232 863.968ZM66.8119 1638.96C61.1432 1632.11 58.8324 1623.09 60.5119 1614.36L191.882 939.898H239.882L145.742 1505.67C142.431 1526.26 150.013 1547.1 165.784 1560.75C181.554 1574.4 203.266 1578.92 223.172 1572.69C383.102 1520.87 553.485 1510.06 718.682 1541.25L709.742 1650H90.1819C81.1314 1650 72.5549 1645.95 66.8119 1638.96ZM887.282 1710C815.012 1710 773.552 1688.64 767.462 1679.13L777.782 1554.63C810.769 1562.84 843.051 1573.67 874.322 1587C878.366 1588.95 882.793 1589.97 887.282 1590C891.783 1589.99 896.224 1588.97 900.272 1587C931.524 1573.59 963.796 1562.69 996.782 1554.42L1007.1 1679.1C1001.01 1688.64 959.552 1710 887.282 1710V1710ZM1707.75 1638.96C1702.01 1645.95 1693.43 1650 1684.38 1650H1064.91L1055.91 1541.04C1221.2 1509.92 1391.66 1520.82 1551.63 1572.75C1571.53 1578.9 1593.2 1574.32 1608.91 1560.64C1624.62 1546.96 1632.14 1526.14 1628.79 1505.58L1534.74 939.927H1582.74L1714.14 1614.33C1715.81 1623.08 1713.46 1632.12 1707.75 1638.96V1638.96Z" fill="#23D997"/>
<path d="M787.862 680.551C775.581 691.662 774.628 710.623 785.732 722.911C811.181 751.009 844.815 770.402 881.882 778.351C865.095 802.007 837.87 816.045 808.862 816.001C792.294 816.001 778.862 829.432 778.862 846.001C778.862 862.569 792.294 876.001 808.862 876.001C870.967 876.249 926.691 837.891 948.632 779.791C1023.23 767.428 1082.29 710.01 1096.74 635.791C1098.98 625.175 1095.3 614.18 1087.14 607.036C1078.98 599.893 1067.59 597.713 1057.37 601.336C1047.14 604.959 1039.67 613.82 1037.82 624.511C1031.94 655.452 1014.09 682.824 988.142 700.681C938.23 734.297 871.289 726.667 830.222 682.681C819.111 670.4 800.15 669.447 787.862 680.551V680.551Z" fill="#23D997"/>
<path d="M683.282 648C699.851 648 713.282 634.569 713.282 618C713.282 597.313 721.5 577.474 736.128 562.846C750.756 548.218 770.595 540 791.282 540C807.851 540 821.282 526.569 821.282 510C821.282 493.431 807.851 480 791.282 480C715.101 480.083 653.365 541.819 653.282 618C653.282 625.956 656.443 633.587 662.069 639.213C667.695 644.839 675.326 648 683.282 648V648Z" fill="#23D997"/>
<path d="M917.282 60V30C917.282 13.4315 903.851 0 887.282 0C870.714 0 857.282 13.4315 857.282 30V60C857.282 76.5685 870.714 90 887.282 90C903.851 90 917.282 76.5685 917.282 60Z" fill="#23D997"/>
<path d="M1379.58 215.279L1349.58 245.279C1341.78 252.811 1338.66 263.965 1341.4 274.454C1344.15 284.943 1352.34 293.134 1362.83 295.879C1373.32 298.625 1384.47 295.497 1392 287.699L1422 257.699C1429.8 250.166 1432.93 239.012 1430.18 228.523C1427.44 218.034 1419.25 209.843 1408.76 207.098C1398.27 204.352 1387.11 207.48 1379.58 215.279Z" fill="#23D997"/>
<path d="M403.772 296.489C415.904 296.486 426.84 289.177 431.482 277.968C436.124 266.76 433.559 253.858 424.982 245.279L394.982 215.279C387.45 207.48 376.295 204.352 365.807 207.098C355.318 209.843 347.126 218.034 344.381 228.523C341.635 239.012 344.763 250.166 352.562 257.699L382.562 287.699C388.187 293.325 395.816 296.487 403.772 296.489Z" fill="#23D997"/>
<path d="M634.712 170.252C638.653 170.244 642.556 169.469 646.202 167.972C653.555 164.926 659.396 159.083 662.44 151.73C665.484 144.376 665.481 136.114 662.432 128.762L627.962 45.6022C624.013 35.4734 614.894 28.2734 604.125 26.7822C593.357 25.291 582.625 29.7421 576.072 38.4167C569.52 47.0912 568.173 58.6318 572.552 68.5822L606.992 151.742C611.638 162.95 622.579 170.255 634.712 170.252V170.252Z" fill="#23D997"/>
<path d="M1185.78 29.3684C1170.48 23.0384 1152.94 30.3027 1146.6 45.5984L1112.13 128.758C1109.07 136.113 1109.07 144.383 1112.11 151.744C1115.15 159.105 1121 164.953 1128.36 167.998C1132.01 169.496 1135.91 170.27 1139.85 170.278C1151.98 170.281 1162.92 162.976 1167.57 151.768L1202.01 68.6084C1205.07 61.2533 1205.08 52.9837 1202.03 45.6228C1198.99 38.2619 1193.14 32.414 1185.78 29.3684V29.3684Z" fill="#23D997"/>
<path d="M1497.03 527.462C1500.98 527.455 1504.88 526.67 1508.52 525.152L1591.65 490.712C1601.56 486.612 1608.52 477.541 1609.92 466.914C1611.32 456.288 1606.95 445.721 1598.45 439.194C1589.94 432.667 1578.61 431.172 1568.7 435.272L1485.54 469.712C1472.27 475.163 1464.72 489.246 1467.52 503.316C1470.32 517.386 1482.69 527.505 1497.03 527.462Z" fill="#23D997"/>
<path d="M266.042 525.148C281.351 531.493 298.906 524.227 305.252 508.918C311.598 493.608 304.331 476.053 289.022 469.708L205.862 435.268C190.553 428.93 173.004 436.203 166.667 451.513C160.33 466.822 167.603 484.37 182.912 490.708L266.042 525.148Z" fill="#23D997"/>
</svg>
